# xmcd CD database file
#
# Track frame offsets:
#	150
#	18876
#	34740
#	48394
#	67616
#	85192
#	101025
#	108504
#	125156
#	143914
#	164886
#	189490
#	206994
#	222909
#	239280
#	258022
#	273798
#	291619
#
# Disc length: 4203 seconds
#
# Revision: 0
# Processed by: cddbd v1.4PL0 Copyright (c) Steve Scherf et al.
# Submitted via: Feurio! 1.65.5ß - http://www.feurio.com
#
DISCID=10106912
DTITLE=Various Artist - Deutsch
DYEAR=1900
DGENRE=
TTITLE0=Mathias Reim - Hallo
TTITLE1=Claudia Jung - Wieviele Stunden hat die Nacht
TTITLE2=Mathias Reim - bastian blaulicht in der nacht
TTITLE3=Claudia Jung - Einfach mal ausprobiert...
TTITLE4=Ben - Gesegnet seist du
TTITLE5=Reinhard Mey - Ich liebe Dich
TTITLE6=Phil Collins - Dir gehört mein Herz
TTITLE7=Band ohne Namen - Missing You
TTITLE8=Nena - Irgendwo Irgendwie Irgendwann
TTITLE9=Freundeskreis - Halt Dich an Deiner Liebe Fest
TTITLE10=Matthias Reim - Ich waere gestorben
TTITLE11=Sabrina Setlur - Du Liebst Mich Nicht
TTITLE12=Die Toten Hosen - Bonnie and Clyde
TTITLE13=Mathias Reim - Getöntes Plexiglas
TTITLE14=Die Toten Hosen - Alles aus Liebe
TTITLE15=Peter Maffay - Nessaja
TTITLE16=Aki and Naidoo - Über sieben Brücken musst ...
TTITLE17=Trude Herr - Niemals geht man so ganz
EXTD=
EXTT0=
EXTT1=000;Genre=Dance
EXTT2=
EXTT3=
EXTT4=Test the Ben Album!!! www.sample.bl.am
EXTT5=
EXTT6=
EXTT7=
EXTT8=upped by pheonixx
EXTT9=
EXTT10=
EXTT11=ripped by DN for mp3hitz!
EXTT12=
EXTT13=
EXTT14=CorranHorn@Gmx.Net
EXTT15=, AG# A974919D
EXTT16=
EXTT17=http://listen.to/favorite
PLAYORDER=
